<?xml version="1.0" encoding="utf-8"?>
<!-- Generator: Adobe Illustrator 25.2.0, SVG Export Plug-In . SVG Version: 6.00 Build 0)  -->
<svg version="1.1" id="type" xmlns="http://www.w3.org/2000/svg" xmlns:xlink="http://www.w3.org/1999/xlink" x="0px" y="0px"
	 viewBox="0 0 135 135" width="135px" height="135px" enable-background="new 0 0 135 135" xml:space="preserve">
<circle fill="#FFFFFF" cx="67.5" cy="67.5" r="67.5"/>
<path fill="#D98766" d="M71.85,83.23l-5.69,22.92c-0.13,0.3-0.48,0.44-0.78,0.31c-0.23-0.1-0.37-0.34-0.35-0.59l-1.28-23.53
	l-11.89,7.28c-0.29,0.15-0.63,0.03-0.78-0.25c-0.11-0.22-0.07-0.48,0.09-0.66L57,79.63l-28.1,2.94c-0.32,0.04-0.62-0.2-0.65-0.52
	c-0.03-0.27,0.13-0.53,0.38-0.62L50,72.66l-20-3.29c-0.32-0.05-0.54-0.34-0.49-0.66c0.05-0.32,0.34-0.54,0.66-0.49l26.13-1.58
	l-13.42-26c-0.15-0.26-0.09-0.59,0.15-0.77c0.24-0.18,0.58-0.15,0.78,0.07L65.14,60.7l5.57-35.64c0.06-0.32,0.36-0.54,0.68-0.48
	c0.27,0.05,0.47,0.27,0.49,0.54L73.07,61l7.35-7.81c0.18-0.2,0.47-0.25,0.71-0.12c0.24,0.12,0.36,0.39,0.29,0.65L81.27,62L103,52.09
	c0.28-0.17,0.64-0.09,0.81,0.19c0.17,0.28,0.09,0.64-0.18,0.81l0,0l-22,17.59L97,79.09c0.28,0.16,0.38,0.52,0.22,0.8
	c-0.12,0.2-0.34,0.32-0.57,0.3l-15.93-0.4l16.48,24.48c20-16.32,22.98-45.77,6.65-65.76s-45.77-22.98-65.76-6.65
	s-22.98,45.77-6.65,65.76c15.31,18.75,42.4,22.72,62.43,9.13L71.85,83.23z"/>
<path d="M52.93,127.3l0.16-0.77l3.68-3c0.32-0.25,0.53-0.6,0.61-1c0.18-0.58-0.15-1.19-0.72-1.36c-0.09-0.03-0.18-0.04-0.28-0.05
	c-0.63-0.18-1.29,0.19-1.47,0.82c-0.02,0.08-0.04,0.16-0.04,0.24L54,122c0.17-1.13,1.23-1.91,2.36-1.74
	c0.08,0.01,0.15,0.03,0.22,0.05c0.7,0.11,1.31,0.56,1.61,1.2c0.16,0.38,0.2,0.8,0.1,1.2c-0.12,0.57-0.46,1.08-0.93,1.42l-3.1,2.57
	l3.21,0.65l-0.17,0.83L52.93,127.3z"/>
<path d="M64.32,128.43c-0.97,0.78-2.37,0.67-3.21-0.25c-0.68-0.81-0.73-1.85-0.62-3.28s0.31-2.47,1.12-3.17
	c0.97-0.76,2.36-0.66,3.2,0.24c0.69,0.82,0.74,1.88,0.63,3.3S65.12,127.73,64.32,128.43z M64.08,122.43
	c-0.49-0.49-1.27-0.55-1.83-0.14c-0.68,0.55-0.74,1.63-0.81,2.63s-0.18,2.08,0.4,2.72c0.23,0.25,0.55,0.4,0.89,0.41
	c0.34,0.04,0.67-0.06,0.94-0.27c0.68-0.55,0.74-1.63,0.82-2.63s0.18-2.03-0.41-2.67V122.43z"/>
<path d="M68.3,129v-0.78l2.82-3.85c0.25-0.31,0.37-0.69,0.36-1.08c0.03-0.61-0.44-1.12-1.04-1.15c-0.08,0-0.16,0-0.24,0.01
	c-0.65-0.02-1.19,0.5-1.21,1.15c0,0.08,0,0.17,0.02,0.25h-0.94c-0.12-1.13,0.71-2.14,1.84-2.26c0.08-0.01,0.16-0.01,0.24-0.01
	c0.71-0.07,1.41,0.22,1.86,0.77c0.25,0.32,0.39,0.72,0.4,1.13c0.01,0.59-0.19,1.16-0.56,1.61l-2.37,3.25l3.27-0.16v0.85L68.3,129z"
	/>
<path d="M79.31,127.37c-0.34,0.49-0.88,0.82-1.47,0.89c-0.59,0.12-1.2,0-1.69-0.35c-0.86-0.62-1.16-1.62-1.4-3s-0.29-2.46,0.32-3.33
	c0.76-0.97,2.13-1.2,3.16-0.54c0.86,0.62,1.16,1.63,1.41,3S79.92,126.5,79.31,127.37z M77.65,121.66c-0.3-0.19-0.66-0.25-1-0.18
	c-0.34,0.04-0.64,0.22-0.84,0.49c-0.53,0.7-0.32,1.76-0.15,2.74s0.32,2.06,1,2.55c0.3,0.19,0.66,0.25,1,0.18
	c0.33-0.05,0.64-0.23,0.85-0.49c0.52-0.7,0.32-1.76,0.15-2.75S78.37,122.14,77.65,121.66z"/>
<path d="M26.85,102.78l-0.55,0.74c0.81-0.13,1.63,0.16,2.19,0.77c0.53,0.53,0.83,1.25,0.84,2c-0.12,1.14-0.71,2.19-1.63,2.88
	c-0.74,0.87-1.81,1.38-2.95,1.43c-0.76-0.03-1.48-0.36-2-0.92c-0.57-0.58-0.89-1.36-0.87-2.17c0.02-0.56,0.24-1.09,0.62-1.49
	l0.69,0.72c-0.21,0.23-0.34,0.51-0.37,0.82c-0.04,0.56,0.17,1.11,0.58,1.5c0.36,0.38,0.85,0.59,1.37,0.6
	c0.87-0.1,1.68-0.53,2.25-1.2c0.7-0.55,1.18-1.33,1.34-2.21c0.02-0.51-0.17-1.01-0.53-1.37c-0.34-0.38-0.82-0.61-1.33-0.64
	c-0.7,0.02-1.37,0.32-1.85,0.84l1.39,1.48l-0.64,0.62l-2-2.11l3-2.81L26.85,102.78z"/>
<path d="M23.34,98c0.92,1.11,0.78,2.75-0.33,3.68c-0.15,0.13-0.32,0.23-0.49,0.32l-4,2.74l-0.54-0.79l4-2.75
	c1-0.69,1.37-1.56,0.62-2.64c-0.47-0.82-1.52-1.1-2.34-0.62c-0.13,0.07-0.25,0.17-0.35,0.27l-4,2.75l-0.54-0.78l3.95-2.74
	c1.04-0.99,2.69-0.94,3.68,0.1C23.13,97.68,23.24,97.84,23.34,98z"/>
<path d="M20.29,93.27l-6.7,3.58L13.14,96l6.7-3.58L20.29,93.27z"/>
<path d="M16,85.64c0.66,0.32,1.18,0.88,1.44,1.57l1,2.46l-7.06,2.78L10.4,90c-0.28-0.68-0.28-1.45,0-2.13c0.5-0.98,1.39-1.7,2.45-2
	C13.82,85.36,14.96,85.28,16,85.64z M11.19,88.23c-0.19,0.46-0.19,0.98,0,1.44l0.62,1.58l5.43-2.15l-0.62-1.57
	c-0.18-0.47-0.54-0.85-1-1.06c-0.83-0.23-1.71-0.13-2.47,0.27c-0.81,0.23-1.51,0.77-1.94,1.49L11.19,88.23z"/>
<path d="M15.68,82.1l-7.39,1.75l-1.17-4.94l0.85-0.2l1,4l2.26-0.53l-0.84-3.53l0.88-0.2L12.05,82l2.56-0.6l-0.95-4l0.85-0.2
	L15.68,82.1z"/>
<path d="M13.15,70.41c0.57,0.55,0.91,1.29,0.95,2.08c0.12,0.78-0.07,1.58-0.53,2.23c-0.41,0.56-1.04,0.92-1.73,1l-0.09-1
	c0.45-0.06,0.86-0.29,1.14-0.65c0.29-0.44,0.41-0.97,0.34-1.49c-0.01-0.51-0.21-1-0.57-1.37c-0.25-0.23-0.58-0.34-0.92-0.3
	c-0.59,0-1,0.47-1.1,1.38c0,0.42-0.05,0.8-0.07,1.21c0.14,1.1-0.64,2.1-1.74,2.23c-0.6,0.08-1.21-0.13-1.64-0.55
	c-1.13-1.04-1.3-2.77-0.38-4c0.38-0.49,0.94-0.8,1.55-0.87l0.09,1c-0.34,0.05-0.66,0.21-0.91,0.46c-0.32,0.38-0.47,0.88-0.4,1.38
	c0.01,0.51,0.25,0.99,0.65,1.3c0.24,0.18,0.55,0.26,0.85,0.23c0.61-0.06,1.06-0.61,1-1.22c0-0.44,0.05-0.86,0.08-1.28
	c-0.07-1.18,0.82-2.21,2-2.3C12.25,69.86,12.76,70.05,13.15,70.41z"/>
<path d="M7.07,65.07l6.7,0.21v1L7,66v2.29H6.11l0.17-5.48h0.89L7.07,65.07z"/>
<path d="M14.6,57.54l-1.87,0.36l-0.47,3.26L14,62l-0.14,1l-7.18-3.75l0.16-1.11l7.9-1.58L14.6,57.54z M7.7,58.85l3.71,1.89
	l0.39-2.66L7.7,58.85z"/>
<path d="M16.47,50.38L13,50.86l-0.59,2l3,0.88l-0.27,0.92l-7.21-2.12l0.84-2.85C8.92,48.98,9.37,48.36,10,48
	c0.51-0.27,1.1-0.32,1.65-0.14c0.54,0.15,1,0.51,1.27,1c0.16,0.31,0.25,0.65,0.26,1l3.63-0.52L16.47,50.38z M9.61,49.93L9,51.87
	l2.56,0.76l0.57-1.94c0.25-0.87,0.08-1.58-0.84-1.86S9.87,49.07,9.61,49.93z"/>
<path d="M20.78,39.37c0.17,0.68,0.06,1.4-0.3,2L19,44.07l-6.68-3.63l1.45-2.66c0.3-0.62,0.85-1.09,1.5-1.3
	c0.46-0.12,0.94-0.06,1.35,0.17c0.66,0.33,1.04,1.04,0.95,1.77c0.61-0.55,1.5-0.65,2.21-0.24C20.26,38.43,20.62,38.85,20.78,39.37z
	 M14.54,38.18l-1,1.85l2.1,1.14l1-1.88c0.39-0.49,0.31-1.2-0.17-1.59c-0.08-0.06-0.16-0.11-0.25-0.15
	c-0.59-0.31-1.32-0.07-1.63,0.52C14.57,38.11,14.55,38.14,14.54,38.18z M17.39,39.67l-1,1.9l2.32,1.26l1-1.87
	c0.46-0.56,0.37-1.39-0.19-1.84c-0.07-0.06-0.16-0.11-0.24-0.16c-0.67-0.34-1.5-0.07-1.84,0.6C17.42,39.6,17.4,39.63,17.39,39.67z"
	/>
<path d="M25.72,33.58l-3.39-0.75l-1.27,1.68l2.53,1.9l-0.57,0.76l-6.08-4.56l1.79-2.38c0.39-0.6,1-1.01,1.7-1.14
	c0.57-0.07,1.14,0.09,1.59,0.45c0.46,0.31,0.78,0.81,0.86,1.36c0.05,0.37,0.01,0.75-0.12,1.1l3.59,0.79L25.72,33.58z M19.44,30.76
	l-1.22,1.62L20.35,34l1.22-1.62c0.54-0.72,0.63-1.45-0.14-2S20,30,19.44,30.76z"/>
<path d="M30.7,27.34c-0.06,1.58-1.33,2.83-2.91,2.88c-1.13-0.09-2.18-0.65-2.89-1.54c-0.88-0.72-1.43-1.77-1.51-2.91
	c0.06-1.58,1.34-2.84,2.92-2.88c1.14,0.09,2.18,0.65,2.89,1.55C30.08,25.16,30.62,26.21,30.7,27.34z M26.3,23.83
	c-1.08,0-1.97,0.86-2,1.94c0.14,0.88,0.6,1.68,1.3,2.23c0.54,0.69,1.32,1.15,2.19,1.29c1.08,0,1.97-0.86,2-1.94
	c-0.13-0.87-0.58-1.66-1.26-2.21C27.98,24.44,27.18,23.97,26.3,23.83z"/>
<path d="M37.49,22.84l-6.59-2.76L34.47,25l-0.75,0.54l-4.44-6.15l0.87-0.62l6.6,2.78l-3.58-5l0.74-0.54l4.44,6.14L37.49,22.84z"/>
<path d="M40.37,21l-0.44-0.85l1.3-7.15l-3.9,2l-0.4-0.79l4.9-2.53l0.44,0.86L41,19.67l4-2.05l0.41,0.79L40.37,21z"/>
<path d="M47.56,17.49L45,10.34l4.78-1.69l0.29,0.83l-3.88,1.37L47,13l3.41-1.2l0.3,0.85l-3.41,1.2l0.86,2.47L52.05,15l0.29,0.83
	L47.56,17.49z"/>
<path d="M63,13.25c-1.14,1.14-2.9,1.37-4.29,0.55c-0.56-0.4-0.92-1.03-1-1.71l1-0.12c0.07,0.45,0.31,0.86,0.67,1.13
	c0.45,0.28,0.99,0.39,1.51,0.29c0.51-0.02,0.99-0.24,1.35-0.6c0.23-0.25,0.33-0.6,0.27-0.93c-0.07-0.59-0.5-1-1.41-1.06h-1.21
	c-1.1,0.14-2.1-0.63-2.24-1.72c0-0.03-0.01-0.05-0.01-0.08c-0.06-0.57,0.11-1.13,0.47-1.57c1-1.14,2.69-1.35,3.94-0.5
	c0.52,0.36,0.86,0.92,0.95,1.54l-1,0.12c-0.06-0.35-0.23-0.66-0.49-0.9C60.67,7.08,59.5,7.21,58.82,8
	c-0.17,0.25-0.25,0.56-0.21,0.86c0.11,0.59,0.66,1,1.26,0.92c0.43,0,0.85,0,1.27,0c1.17-0.11,2.21,0.73,2.36,1.89
	C63.57,12.24,63.39,12.82,63,13.25z"/>
<path d="M65.92,13.7L66,6.11l5.07,0.08v0.88L67,7v2.31l3.62,0.06v0.9L67,10.21v2.62l4,0.07v0.88L65.92,13.7z"/>
<path d="M77.84,14.67l-0.35-1.88l-3.26-0.49L73.36,14l-1-0.15l3.78-7.12l1.1,0.17l1.54,7.91L77.84,14.67z M76.57,7.76l-1.91,3.7
	l2.66,0.4L76.57,7.76z"/>
<path d="M80.45,15.26L82.51,8l0.92,0.26l-1.82,6.45l3.51,1l-0.24,0.85L80.45,15.26z"/>
<path d="M92.94,19.32c-0.72,0.23-1.51,0.18-2.19-0.16c-0.69-0.32-1.23-0.9-1.49-1.62c-0.3-1.1-0.13-2.27,0.47-3.24
	c0.39-1.08,1.21-1.94,2.27-2.39c1.5-0.46,3.11,0.31,3.68,1.77c0.3,1.1,0.13,2.27-0.47,3.24C94.82,18,94,18.87,92.94,19.32z
	 M94.77,14c-0.38-1-1.47-1.53-2.49-1.2c-0.77,0.42-1.37,1.11-1.66,1.94c-0.47,0.74-0.64,1.64-0.48,2.5c0.17,0.49,0.53,0.89,1,1.11
	c0.46,0.23,1,0.27,1.49,0.09c0.78-0.41,1.37-1.11,1.66-1.94C94.76,15.76,94.93,14.86,94.77,14z"/>
<path d="M100,16.42l-1.37,2.06l3,2l-0.5,0.75l-3-2L96.23,22l-0.8-0.52l4.21-6.34l4.1,2.72l-0.49,0.73L100,16.42z"/>
<path d="M109.51,24l-4.62,4.86l-0.7-0.67l4.62-4.86l-1.63-1.55l0.61-0.65l4,3.78l-0.61,0.65L109.51,24z"/>
<path d="M110.8,35.56l1.58-3.09l-1.31-1.64l-2.47,2l-0.59-0.75l5.93-4.73l1.85,2.33c0.48,0.52,0.73,1.21,0.68,1.92
	c-0.08,0.57-0.38,1.08-0.84,1.43c-0.42,0.37-0.97,0.55-1.53,0.49c-0.36-0.04-0.7-0.17-1-0.38l-1.67,3.27L110.8,35.56z M115.1,30.19
	l-1.25-1.58l-2.09,1.66l1.24,1.59c0.56,0.7,1.25,1,2,0.37S115.67,30.9,115.1,30.19z"/>
<path d="M115,42.26l1.24-1.44L114.61,38l-1.86,0.38l-0.49-0.83l7.91-1.55l0.57,1l-5.2,6.16L115,42.26z M119.58,36.93l-4.08,0.84
	l1.36,2.32L119.58,36.93z"/>
<path d="M118.05,49.06l4.27-5.73l-5.66,2.27l-0.34-0.85l7-2.83l0.4,1l-4.28,5.74l5.67-2.29l0.35,0.86l-7,2.83L118.05,49.06z"/>
<path d="M121,57.22c-1.27-1.01-1.68-2.75-1-4.22c0.34-0.6,0.92-1.04,1.59-1.21l0.22,1c-0.42,0.13-0.78,0.42-1,0.8
	c-0.23,0.47-0.28,1.01-0.13,1.52c0.08,0.51,0.35,0.97,0.75,1.28c0.29,0.22,0.66,0.28,1,0.17c0.58-0.13,1-0.61,0.9-1.51
	c0-0.43-0.06-0.8-0.09-1.21c-0.23-1.08,0.43-2.16,1.5-2.44c0.56-0.12,1.14,0,1.61,0.31c1.24,0.87,1.63,2.53,0.92,3.86
	c-0.31,0.53-0.82,0.92-1.42,1.08l-0.22-1c0.34-0.09,0.64-0.3,0.84-0.58c0.27-0.42,0.35-0.94,0.21-1.42c-0.09-0.5-0.39-0.94-0.82-1.2
	c-0.27-0.14-0.58-0.18-0.88-0.11c-0.58,0.17-0.93,0.76-0.78,1.35c0,0.43,0.06,0.85,0.1,1.27c0.23,1.15-0.48,2.27-1.62,2.55
	C122.1,57.67,121.49,57.56,121,57.22z"/>
<path d="M124.85,65.12c-0.5-0.47-0.78-1.12-0.79-1.8l-0.15-1.87l-2.93,0.24l-0.08-0.95l7.56-0.62l0.23,2.81
	c0.13,0.71-0.06,1.44-0.52,2c-0.4,0.43-0.96,0.68-1.55,0.71C125.98,65.72,125.34,65.53,124.85,65.12z M127.85,62.98l-0.15-1.84
	l-2.91,0.24l0.16,1.85c-0.06,0.73,0.48,1.37,1.2,1.43c0.14,0.01,0.27,0,0.41-0.03c0.94-0.08,1.34-0.71,1.27-1.63L127.85,62.98z"/>
<path d="M121.09,72.43l1.82-0.52l0.17-3.3l-1.76-0.7v-1l7.5,3.09l-0.06,1.12l-7.76,2.3L121.09,72.43z M127.84,70.49L124,69
	l-0.13,2.69L127.84,70.49z"/>
<path d="M119.86,80l3.37-0.8l0.41-2.05l-3.1-0.61l0.18-0.94l7.45,1.47L127.59,80c-0.08,0.7-0.44,1.34-1,1.76
	c-0.48,0.31-1.07,0.41-1.63,0.29c-0.55-0.09-1.04-0.4-1.36-0.86c-0.19-0.3-0.31-0.64-0.35-1l-3.57,0.85L119.86,80z M126.73,79.82
	l0.39-2l-2.61-0.51l-0.39,2c-0.18,0.88,0.06,1.58,1,1.77s1.44-0.4,1.61-1.28V79.82z"/>
<path d="M118.87,83.62l7.13,2.56L124.28,91l-0.83-0.29l1.4-3.88L122.68,86l-1.23,3.4l-0.84-0.31l1.22-3.39l-2.46-0.89L118,88.68
	l-0.82-0.3L118.87,83.62z"/>
<path d="M113.89,94.78l7.15-0.36l-5.37-2.92l0.44-0.81l6.68,3.63l-0.51,0.94l-7.17,0.35l5.39,2.93l-0.44,0.81l-6.68-3.63
	L113.89,94.78z"/>
<path d="M109.62,102c-0.08-0.75,0.13-1.51,0.59-2.11c0.45-0.62,1.13-1.03,1.89-1.15c2.28,0.12,4.26,1.62,5,3.78
	c0.09,0.76-0.12,1.52-0.59,2.13c-0.44,0.61-1.11,1.02-1.85,1.14c-0.64,0.09-1.3-0.07-1.83-0.45l0.59-0.79
	c0.32,0.23,0.71,0.34,1.1,0.31c0.51-0.06,0.97-0.34,1.27-0.76c0.31-0.42,0.45-0.94,0.38-1.45c-0.69-1.62-2.18-2.76-3.93-3
	c-0.52,0.06-0.99,0.33-1.3,0.75c-0.32,0.41-0.45,0.94-0.37,1.45c0.08,0.4,0.3,0.75,0.62,1l-0.6,0.79
	C110.08,103.23,109.73,102.65,109.62,102z"/>
<path d="M108,107.44l-2.22-2.14l0.67-0.7l2.22,2.15l5,1.31l-0.75,0.77l-4-1.08l1.22,3.93l-0.71,0.73L108,107.44z"/>
</svg>
